<svg xmlns="http://www.w3.org/2000/svg" width="481.218" height="270.073" viewBox="0 0 481.218 270.073">
  <g id="Group_137" data-name="Group 137" transform="translate(-360.265 -396)">
    <g id="Subtraction_14" data-name="Subtraction 14" transform="translate(16278 10849.151)" fill="none">
      <path d="M-15819.119-10191.6h0l-98.616-125.721,99.359-126.676v31.772l-74.355,94.8,74.355,94.8v30.072l-.742.949Z" stroke="none"/>
      <path d="M -15819.119140625 -10191.6015625 L -15917.7353515625 -10317.322265625 L -15818.3759765625 -10443.998046875 L -15818.3759765625 -10412.2255859375 L -15892.7314453125 -10317.42578125 L -15818.3759765625 -10222.6240234375 L -15818.3759765625 -10192.5517578125 L -15819.1181640625 -10191.6025390625 L -15819.119140625 -10191.6015625 Z" stroke="none" fill="#79e05a"/>
    </g>
    <g id="Subtraction_13" data-name="Subtraction 13" transform="translate(16510.869 10848.672)" fill="#962727">
      <path d="M-15768-10191.12v0h0l-.745-.947v-29.973l74.358-94.8-74.358-94.8v-31.878l99.358,126.677-98.612,125.727Z" stroke="none"/>
      <path d="M -15768 -10191.1201171875 L -15768 -10191.1220703125 L -15768 -10191.123046875 L -15768.7451171875 -10192.0703125 L -15768.7451171875 -10222.04296875 L -15694.38671875 -10316.84375 L -15768.7451171875 -10411.646484375 L -15768.7451171875 -10443.5244140625 L -15669.38671875 -10316.84765625 L -15767.9990234375 -10191.12109375 L -15768 -10191.1201171875 Z M -15768 -10191.123046875 L -15768.0009765625 -10191.123046875 L -15768 -10191.123046875 Z" stroke="none" fill="#79e05a"/>
    </g>
    <g id="Group_136" data-name="Group 136" transform="translate(474.436 404.672)">
      <g id="Path_28" data-name="Path 28" transform="translate(127.001) rotate(45)" fill="none">
        <path d="M0,0,158.632,19.172l19.389,160.435L19.389,160.435Z" stroke="none"/>
        <path d="M 22.91488647460938 22.9149169921875 L 37.36273193359375 142.4614868164062 L 155.1066589355469 156.6914215087891 L 140.6588439941406 37.1448974609375 L 22.91488647460938 22.9149169921875 M -1.52587890625e-05 -1.52587890625e-05 L 158.6322326660156 19.17152404785156 L 178.0216064453125 179.6063537597656 L 19.38938903808594 160.4348602294922 L -1.52587890625e-05 -1.52587890625e-05 Z" stroke="none" fill="#79e05a"/>
      </g>
      <path id="Path_29" data-name="Path 29" d="M770.006,500.791s55.423,27.617,111.085,27.955,111.563-26.6,111.563-26.6" transform="translate(-754.523 -433.498)" fill="none" stroke="#79e05a" stroke-width="20"/>
      <path id="Path_30" data-name="Path 30" d="M770.006,500.791s61.61,33.518,123.486,33.928,124.018-32.286,124.018-32.286" transform="translate(-766.952 -353.331)" fill="none" stroke="#79e05a" stroke-width="20"/>
    </g>
    <g id="Ellipse_132" data-name="Ellipse 132" transform="translate(466.354 396)" fill="none" stroke="#35adf8" stroke-width="20">
      <circle cx="135.037" cy="135.037" r="135.037" stroke="none"/>
      <circle cx="135.037" cy="135.037" r="125.037" fill="none"/>
    </g>
  </g>
</svg>
